<svg xmlns="http://www.w3.org/2000/svg" width="66" height="71" viewBox="0 0 66 71">
  <g fill="none" fill-rule="evenodd">
    <g fill-rule="nonzero" transform="translate(3 11)">
      <path fill="#FCD47F" d="M51.5880603,27.1286188 C50.3474959,27.7086188 48.9956986,28.0099945 47.604811,28.0103149 C45.9534795,28.0104751 44.3210575,27.5682652 42.883611,26.7314309 C40.2003562,25.1694365 38.470526,22.3774254 38.1927616,19.326337 C35.1508603,19.0461105 32.3899014,17.2873646 30.8488493,14.5961326 C29.300011,11.8912818 29.1859178,8.60226519 30.4576274,5.82034807 C28.5108932,4.44132597 27.1536932,2.37703867 26.6556877,0.029480663 C20.0297041,0.243856354 13.9462192,2.65694475 9.09646575,6.56489503 C10.3672219,7.80692818 11.119474,9.53250829 11.119474,11.3937956 C11.119474,13.7759613 9.88447123,15.8713315 8.0270411,17.0675414 C6.99130411,17.7345414 5.76297534,18.1230773 4.44550137,18.1230773 C3.51734247,18.1230773 2.61206575,17.9290497 1.77909041,17.5626243 C1.7749589,17.5669503 1.7708274,17.571116 1.76669589,17.575442 C1.45492603,18.446884 1.1830411,19.3373923 0.950564384,20.2439227 C0.331473973,22.6589337 0,25.1897845 0,27.7977017 C0,44.4505912 13.4367726,57.9987182 29.9526301,57.9987182 C36.4854959,57.9987182 42.5346575,55.8769116 47.4625918,52.2836354 C47.5665151,52.1895856 47.6998356,52.0907293 47.8546082,51.9885083 C49.7002795,50.5965083 51.3849808,48.999105 52.867874,47.2235359 C51.1498027,45.9837459 50.0616274,43.9547072 50.0616274,41.7450994 C50.0616274,40.2790773 50.5303945,38.9221657 51.3228493,37.8155193 C52.4890466,36.1870331 54.3587123,35.105221 56.4791288,35.0236685 C56.5622356,35.0190221 56.6470904,35.0158177 56.7357589,35.0158177 C56.7999562,35.0158177 56.8639945,35.0180608 56.9280329,35.0199834 C57.1512932,33.6941547 57.289063,32.3394862 57.3329205,30.961105 C55.0041808,30.459453 52.9563836,29.091326 51.5880603,27.1286188 Z M17.8663836,48.0456298 C15.7858521,48.0456298 13.9250849,47.0802983 12.7000932,45.5710166 C11.7125041,44.3973978 11.1148658,42.880105 11.1148658,41.2240608 C11.1148658,37.5135028 14.1087781,34.494779 17.7888384,34.494779 C19.8693699,34.494779 21.7302959,35.4601105 22.9551288,36.9693923 C23.9427178,38.143011 24.5403562,39.6603039 24.5403562,41.3163481 C24.5403562,45.0269061 21.5466027,48.0456298 17.8663836,48.0456298 Z M22.2774027,23.8229392 C20.1968712,23.8229392 18.3361041,22.8576077 17.1111123,21.348326 C16.1235233,20.1747072 15.5258849,18.6574144 15.5258849,17.0013702 C15.5258849,13.2908122 18.5197973,10.2720884 22.1998575,10.2720884 C24.280389,10.2720884 26.1411562,11.2374199 27.3661479,12.7467017 C28.353737,13.9203204 28.9513753,15.4376133 28.9513753,17.0936575 C28.9513753,20.8040552 25.9576219,23.8229392 22.2774027,23.8229392 Z M36.0653534,44.835442 C33.3935397,44.835442 31.003463,43.5974144 29.4284055,41.660663 C28.1684548,40.1544254 27.4069863,38.211105 27.4069863,36.0910608 C27.4069863,31.3203204 31.2564384,27.4391271 35.9878082,27.4391271 C38.6596219,27.4391271 41.0496986,28.6771547 42.6247562,30.6139061 C43.8847068,32.1201436 44.6461753,34.0634641 44.6461753,36.1835083 C44.6461753,40.9542486 40.7967233,44.835442 36.0653534,44.835442 Z"/>
      <path fill="#77CCA4" d="M22.1998575 20.5260718C24.1275233 20.5260718 25.6957479 18.9448508 25.6957479 17.0012099 25.6957479 15.0575691 24.1275233 13.4763481 22.1998575 13.4763481 20.2721918 13.4763481 18.7039671 15.0575691 18.7039671 17.0012099 18.7039671 18.9448508 20.2723507 20.5260718 22.1998575 20.5260718zM18.0314849 45.7185801C20.2681029 45.7185801 22.0876712 43.8839325 22.0876712 41.628779 22.0876712 39.3736255 20.2681029 37.5389779 18.0314849 37.5389779 15.7948669 37.5389779 13.9752986 39.3736255 13.9752986 41.628779 13.9752986 43.8839325 15.7948669 45.7185801 18.0314849 45.7185801zM7.94155068 11.3934751C7.94155068 10.351558 7.49058082 9.39167403 6.7397589 8.73444751 5.28515068 10.5318066 4.03187397 12.500442 3.01377534 14.6054254 3.46013699 14.808105 3.94590685 14.9184972 4.44566027 14.9184972 6.37332603 14.918337 7.94155068 13.337116 7.94155068 11.3934751zM53.2397096 41.7449392C53.2397096 42.9342597 53.8419562 44.0229613 54.7848932 44.6664088 56.0758301 42.7405525 57.151611 40.6570387 57.9790247 38.4514365 57.5866904 38.3003481 57.1684548 38.2200773 56.7356 38.2200773 54.8080932 38.2200773 53.2397096 39.8012983 53.2397096 41.7449392z"/>
      <path fill="#5DB48B" d="M36.4439425,42.4585635 C39.6745945,42.4585635 42.3028164,39.808387 42.3028164,36.5511354 C42.3028164,33.29371 39.6745945,30.6437072 36.4439425,30.6437072 C33.2132904,30.6437072 30.5850685,33.29371 30.5850685,36.5511354 C30.5850685,39.808387 33.2132904,42.4585635 36.4439425,42.4585635 Z"/>
    </g>
    <g fill="#4A4A4A" fill-rule="nonzero" transform="translate(0 5)">
      <path d="M25.2772086 28.9815971C28.9426619 28.9815971 31.9246906 25.9995683 31.9246906 22.3341151 31.9246906 20.7409353 31.3609209 19.2773813 30.4229928 18.1311655 29.2030216 16.6402302 27.3496403 15.6866331 25.2772086 15.6866331 21.6117554 15.6866331 18.6297266 18.6686619 18.6297266 22.3341151 18.6297266 23.9701871 19.2249928 25.4688777 20.2086619 26.6282302 21.4291079 28.0664604 23.2478273 28.9815971 25.2772086 28.9815971zM25.2772086 18.8521007C27.197223 18.8521007 28.759223 20.4141007 28.759223 22.3341151 28.759223 24.2541295 27.197223 25.8161295 25.2772086 25.8161295 23.3571942 25.8161295 21.7951942 24.2541295 21.7951942 22.3341151 21.7951942 20.4141007 23.3573525 18.8521007 25.2772086 18.8521007zM21.0187842 53.3381295C24.8459101 53.3381295 27.9594676 50.224572 27.9594676 46.397446 27.9594676 44.7339956 27.3708316 43.2058884 26.3915342 42.0091163 25.1177535 40.4524202 23.1824596 39.4567626 21.0187842 39.4567626 17.1916583 39.4567626 14.0781007 42.5703201 14.0781007 46.397446 14.0781007 48.1056804 14.6996224 49.6704741 15.7266783 50.8809623 17.0007895 52.3826287 18.8997274 53.3381295 21.0187842 53.3381295zM21.0187842 42.7618499C23.0234849 42.7618499 24.6543803 44.3927453 24.6543803 46.397446 24.6543803 48.4021468 23.0234849 50.0330421 21.0187842 50.0330421 19.0140834 50.0330421 17.3831881 48.4021468 17.3831881 46.397446 17.3831881 44.3927453 19.0140834 42.7618499 21.0187842 42.7618499z"/>
      <path d="M65.9952518,32.6986475 L65.9931942,32.5671223 C65.9830647,31.7315971 65.324964,31.0480144 64.4905468,31.0059137 C62.1362302,30.8870504 60.0577842,29.4803165 59.066518,27.3350791 C58.8694676,26.9086906 58.4930935,26.5918273 58.039482,26.4701151 C57.5857122,26.3484029 57.1013957,26.4346619 56.7174245,26.7054676 C55.6560432,27.4541007 54.3548777,27.8664029 53.0540288,27.8665612 C51.9518129,27.8665612 50.8608345,27.5731223 49.8988489,27.017741 C47.7688058,25.7879568 46.5368058,23.4086331 46.7602878,20.9560288 C46.8028633,20.4881727 46.6354101,20.0255396 46.3031942,19.693482 C45.9708201,19.3611079 45.5066043,19.1942878 45.0406475,19.2362302 C44.8515108,19.253482 44.6590504,19.2621871 44.4686475,19.2621871 C42.2097698,19.2621871 40.1063165,18.0494964 38.9792518,16.0973525 C37.7494676,13.9673094 37.8722878,11.2907482 39.292,9.27830216 C39.5628058,8.89448921 39.649223,8.41017266 39.5275108,7.95640288 C39.4059568,7.50263309 39.0890935,7.12625899 38.662705,6.92920863 C36.5184173,5.93810072 35.112,3.86076259 34.9925036,1.50771223 C34.9500863,0.673769784 34.2671367,0.0161438849 33.4322446,0.00538129496 L33.3030935,0.00332374101 C33.2021151,0.00158273381 33.1008201,0 32.9993669,0 C14.8034676,0 0.000158273381,14.8034676 0.000158273381,32.9993669 C0.000158273381,51.1952662 14.8034676,65.9987338 32.9993669,65.9987338 C51.1952662,65.9987338 65.9985755,51.1952662 65.9985755,32.9993669 C65.9985755,32.8988633 65.9969928,32.7988345 65.9952518,32.6986475 Z M9.87847482,14.1678417 C10.6263165,14.8170791 11.0754964,15.765295 11.0754964,16.7945468 C11.0754964,18.7145612 9.5134964,20.2765612 7.59348201,20.2765612 C7.09571223,20.2765612 6.6118705,20.1675108 6.16728058,19.967295 C7.18133813,17.8880576 8.42964029,15.9433525 9.87847482,14.1678417 Z M57.7330647,49.6631799 C56.7937122,49.027554 56.1940144,47.9520863 56.1940144,46.777223 C56.1940144,44.8572086 57.7560144,43.2952086 59.6760288,43.2952086 C60.1073237,43.2952086 60.523741,43.3745036 60.914518,43.5237554 C60.0903885,45.7025468 59.0188777,47.7607338 57.7330647,49.6631799 Z M61.8766619,40.5062734 C61.232964,40.280259 60.554446,40.1537986 59.8673813,40.1336978 C59.8035971,40.1317986 59.7398129,40.1295827 59.6758705,40.1295827 C59.5900863,40.1295827 59.5054101,40.1341727 59.420259,40.1373381 C57.308259,40.2178993 55.4460144,41.2864029 54.284446,42.8952518 C53.4951367,43.9882878 53.0282302,45.3288633 53.0282302,46.7770647 C53.0282302,48.9598129 54.1120863,50.9640288 55.8233381,52.1889065 C54.3463309,53.9428921 52.6681583,55.5208777 50.8299712,56.8959568 C50.6998705,56.993295 50.5711942,57.0922158 50.4395108,57.1874964 C45.5311367,60.7372518 39.5059856,62.8331079 32.9990504,62.8331079 C16.5489065,62.8331079 3.16546763,49.4498273 3.16546763,32.9993669 C3.16546763,30.4233094 3.49546763,27.9230647 4.11241727,25.5370935 C4.34397122,24.641741 4.61477698,23.7620576 4.92530935,22.9010504 C4.92720863,22.8959856 4.92879137,22.8907626 4.93069065,22.8855396 C4.93290647,22.8864892 4.93528058,22.8872806 4.93765468,22.8883885 C5.76732374,23.2503597 6.66884892,23.4420288 7.59348201,23.4420288 C8.90572662,23.4420288 10.1291799,23.0582158 11.1608058,22.3993237 C13.010705,21.2176547 14.240964,19.1477554 14.240964,16.7945468 C14.240964,14.9558849 13.4918561,13.2512806 12.2259856,12.0243453 C12.1546043,11.9551799 12.0825899,11.8868058 12.0080432,11.8208058 C17.1886475,6.68546763 24.2362446,3.43089209 32.0299424,3.18082014 C32.5296115,5.51741007 33.8918705,7.57227338 35.8454388,8.94482014 C34.5691223,11.7138129 34.683554,14.9875396 36.2379568,17.6799281 C37.784446,20.358705 40.5553381,22.1092086 43.6082734,22.3882446 C43.8869928,25.4251942 45.6229353,28.2043165 48.3159568,29.759036 C49.7584604,30.5918705 51.3969065,31.0320288 53.0540288,31.0318705 C54.45,31.0317122 55.8067194,30.7316259 57.0516978,30.1544029 C58.4248777,32.1079712 60.4800576,33.4697554 62.8171223,33.9691079 C62.7452662,36.2192806 62.422705,38.4074101 61.8766619,40.5062734 Z"/>
      <path d="M39.1482086,50.0143885 C43.9367673,50.0143885 47.8327482,46.1185684 47.8327482,41.3298489 C47.8327482,39.2453986 47.0940799,37.3304576 45.8653783,35.8320529 C44.2714437,33.8881635 41.8524778,32.6453094 39.1482086,32.6453094 C34.35965,32.6453094 30.4636691,36.5411295 30.4636691,41.3298489 C30.4636691,43.4578828 31.2343415,45.4085268 32.5095214,46.9204409 C34.1039386,48.8106148 36.4876839,50.0143885 39.1482086,50.0143885 Z M39.1482086,35.8618055 C42.1633521,35.8618055 44.6162521,38.3147054 44.6162521,41.3298489 C44.6162521,44.3448316 42.1633521,46.7978924 39.1482086,46.7978924 C36.1330652,46.7978924 33.6801652,44.3448316 33.6801652,41.3298489 C33.6801652,38.3147054 36.1330652,35.8618055 39.1482086,35.8618055 Z"/>
    </g>
    <g transform="translate(44)">
      <circle cx="3.5" cy="3.5" r="3.5" fill="#515151"/>
      <circle cx="3.5" cy="3.5" r="2.5" fill="#FFF"/>
      <circle cx="3" cy="4" r="2" fill="#FBB829"/>
    </g>
    <g transform="translate(57 18)">
      <circle cx="3" cy="3" r="3" fill="#515151"/>
      <circle cx="3" cy="3" r="2" fill="#FFF"/>
      <circle cx="2.5" cy="3.5" r="1.5" fill="#77CCA4"/>
    </g>
    <g transform="translate(56 5)">
      <circle cx="2" cy="2" r="2" fill="#515151"/>
      <circle cx="2" cy="2" r="1.333" fill="#FFF"/>
      <circle cx="1.9" cy="2.4" r="1" fill="#FBB829"/>
    </g>
    <g transform="translate(45 11)">
      <circle cx="4" cy="4" r="4" fill="#515151"/>
      <circle cx="4" cy="4" r="3" fill="#FFF"/>
      <circle cx="3.5" cy="4.5" r="2.5" fill="#FBB829"/>
    </g>
  </g>
</svg>
